# xmcd
#
# Track frame offsets:
#	150
#	15715
#	30347
#	44787
#	61222
#	77717
#	103117
#	121092
#	137417
#	154002
#	171930
#	188410
#
# Disc length: 2700 seconds
#
# Revision: 0
# Processed by: cddbd v1.4PL0 Copyright (c) Steve Scherf et al.
# Submitted via: audiograbber 1.81.01
#
DISCID=8f0a8a0c
DTITLE=Anna Oxa - I Grandi Successi Originali cd2
DYEAR=1900
DGENRE=pop
TTITLE0=Sara non piange mai
TTITLE1=Tu non sei l'america
TTITLE2=Un cielo a metà (Hole World)
TTITLE3=Un click d'ironia
TTITLE4=Pelle di serpente
TTITLE5=Controllo totale
TTITLE6=Codice uomo
TTITLE7=Guidare un treno (Can't take thè hurt anymore)
TTITLE8=Il pagliaccio azzurro
TTITLE9=Matto
TTITLE10=Un sogno in tasca
TTITLE11=Notti per due (Decause thè night)
EXTD=
EXTT0=
EXTT1=
EXTT2=
EXTT3=
EXTT4=
EXTT5=
EXTT6=
EXTT7=
EXTT8=
EXTT9=
EXTT10=
EXTT11=
PLAYORDER=
